<svg width="45" height="45" viewBox="0 0 45 45" fill="none" xmlns="http://www.w3.org/2000/svg">
<circle cx="22.5" cy="22.5" r="22" fill="url(#paint0_linear_19_31121)" stroke="url(#paint1_linear_19_31121)"/>
<path d="M32.8516 33.4375H31.875V11.1719C31.875 10.5247 31.3503 10 30.7031 10H14.2969C13.6497 10 13.125 10.5247 13.125 11.1719V33.4375H12.1484C11.8249 33.4375 11.5625 33.6999 11.5625 34.0234V35H33.4375V34.0234C33.4375 33.6999 33.1751 33.4375 32.8516 33.4375ZM17.8125 13.7109C17.8125 13.3874 18.0749 13.125 18.3984 13.125H20.3516C20.6751 13.125 20.9375 13.3874 20.9375 13.7109V15.6641C20.9375 15.9876 20.6751 16.25 20.3516 16.25H18.3984C18.0749 16.25 17.8125 15.9876 17.8125 15.6641V13.7109ZM17.8125 18.3984C17.8125 18.0749 18.0749 17.8125 18.3984 17.8125H20.3516C20.6751 17.8125 20.9375 18.0749 20.9375 18.3984V20.3516C20.9375 20.6751 20.6751 20.9375 20.3516 20.9375H18.3984C18.0749 20.9375 17.8125 20.6751 17.8125 20.3516V18.3984ZM20.3516 25.625H18.3984C18.0749 25.625 17.8125 25.3626 17.8125 25.0391V23.0859C17.8125 22.7624 18.0749 22.5 18.3984 22.5H20.3516C20.6751 22.5 20.9375 22.7624 20.9375 23.0859V25.0391C20.9375 25.3626 20.6751 25.625 20.3516 25.625ZM24.0625 33.4375H20.9375V29.3359C20.9375 29.0124 21.1999 28.75 21.5234 28.75H23.4766C23.8001 28.75 24.0625 29.0124 24.0625 29.3359V33.4375ZM27.1875 25.0391C27.1875 25.3626 26.9251 25.625 26.6016 25.625H24.6484C24.3249 25.625 24.0625 25.3626 24.0625 25.0391V23.0859C24.0625 22.7624 24.3249 22.5 24.6484 22.5H26.6016C26.9251 22.5 27.1875 22.7624 27.1875 23.0859V25.0391ZM27.1875 20.3516C27.1875 20.6751 26.9251 20.9375 26.6016 20.9375H24.6484C24.3249 20.9375 24.0625 20.6751 24.0625 20.3516V18.3984C24.0625 18.0749 24.3249 17.8125 24.6484 17.8125H26.6016C26.9251 17.8125 27.1875 18.0749 27.1875 18.3984V20.3516ZM27.1875 15.6641C27.1875 15.9876 26.9251 16.25 26.6016 16.25H24.6484C24.3249 16.25 24.0625 15.9876 24.0625 15.6641V13.7109C24.0625 13.3874 24.3249 13.125 24.6484 13.125H26.6016C26.9251 13.125 27.1875 13.3874 27.1875 13.7109V15.6641Z" fill="white"/>
<rect x="31" y="31" width="13" height="13" rx="6.5" fill="#0ACD5E" stroke="white" stroke-width="2"/>
<defs>
<linearGradient id="paint0_linear_19_31121" x1="17.6042" y1="42.7841" x2="54.0003" y2="23.817" gradientUnits="userSpaceOnUse">
<stop stop-color="#016DEA"/>
<stop offset="1" stop-color="#FA0101"/>
</linearGradient>
<linearGradient id="paint1_linear_19_31121" x1="0" y1="22.5" x2="45" y2="22.5" gradientUnits="userSpaceOnUse">
<stop stop-color="#FA0101"/>
<stop offset="1" stop-color="#016DEA"/>
</linearGradient>
</defs>
</svg>
