<svg width="45" height="45" viewBox="0 0 45 45" fill="none" xmlns="http://www.w3.org/2000/svg">
<circle cx="22.5" cy="22.5" r="22" fill="url(#paint0_linear_19_5507)" stroke="url(#paint1_linear_19_5507)"/>
<g clip-path="url(#clip0_19_5507)">
<path d="M26.6945 27.4039C25.6835 26.7869 25.3207 26.849 25.3207 25.6162C25.3207 25.1847 25.3207 24.383 25.3207 23.6434C25.8756 23.0272 26.0774 23.1039 26.5467 20.6846C27.4955 20.6846 27.4341 19.4518 27.8816 18.3582C28.2464 17.4677 27.9408 17.1066 27.6336 16.9591C27.8847 13.7139 27.8847 11.4788 24.2013 10.7855C22.8662 9.64107 20.8515 10.0296 19.8968 10.2206C18.9428 10.4115 18.0823 10.2206 18.0823 10.2206L18.2462 11.7582C16.8493 13.4345 17.5479 15.6696 17.323 16.9787C17.0299 17.1383 16.7656 17.5064 17.1145 18.3582C17.562 19.4518 17.5006 20.6846 18.4495 20.6846C18.9187 23.1039 19.1205 23.0272 19.6754 23.6434C19.6754 24.383 19.6754 25.1847 19.6754 25.6162C19.6754 26.849 19.2564 26.8703 18.3017 27.4039C16 28.6905 13.0005 29.438 12.4631 33.4591C12.3647 34.1945 16.5875 34.9975 22.4981 35C28.4086 34.9975 32.6313 34.1945 32.5331 33.4591C31.9957 29.438 28.9687 28.7914 26.6945 27.4039Z" fill="white"/>
</g>
<rect x="31" y="31" width="13" height="13" rx="6.5" fill="#FA0101" stroke="white" stroke-width="2"/>
<defs>
<linearGradient id="paint0_linear_19_5507" x1="17.6042" y1="42.7841" x2="54.0003" y2="23.817" gradientUnits="userSpaceOnUse">
<stop stop-color="#016DEA"/>
<stop offset="1" stop-color="#FA0101"/>
</linearGradient>
<linearGradient id="paint1_linear_19_5507" x1="0" y1="22.5" x2="45" y2="22.5" gradientUnits="userSpaceOnUse">
<stop stop-color="#FA0101"/>
<stop offset="1" stop-color="#016DEA"/>
</linearGradient>
<clipPath id="clip0_19_5507">
<rect width="25" height="25" fill="white" transform="translate(10 10)"/>
</clipPath>
</defs>
</svg>
